<svg width="820" height="203" viewBox="0 0 820 203" fill="none" xmlns="http://www.w3.org/2000/svg">
<g clip-path="url(#clip0_1_40)">
<path d="M94 175C77.7333 175 64.9333 170.533 55.6 161.6C46.2667 152.667 41.6 140.333 41.6 124.6C41.6 108.867 46.1333 96.5333 55.2 87.6C64.4 78.5333 77 74 93 74C100.2 74 106.933 75.2 113.2 77.6C119.6 79.8667 124.8 82.9333 128.8 86.8L120.6 102.4C117.133 99.4667 113.133 97.2 108.6 95.6C104.067 93.8667 99.2 93 94 93C85.0667 93 78 95.6667 72.8 101C67.7333 106.2 65.2 114.067 65.2 124.6C65.2 134.867 67.8 142.667 73 148C78.2 153.333 85.4667 156 94.8 156C104.8 156 113 152.8 119.4 146.4L131.8 159.2C127.533 164 122 167.867 115.2 170.8C108.533 173.6 101.467 175 94 175ZM220.864 175C216.597 167.8 214.464 159.133 214.464 149V114.8C214.464 100.267 208.331 93 196.064 93C188.997 93 183.264 95.8 178.864 101.4C174.464 106.867 172.264 113.733 172.264 122V173H149.064V26.2H172.264V87.6C175.864 83.3333 180.197 80 185.264 77.6C190.464 75.2 195.997 74 201.864 74C225.731 74 237.664 87.6 237.664 114.8V148.6C237.664 155.667 239.064 161.867 241.864 167.2L220.864 175ZM276.23 61.6C271.563 61.6 267.696 60.2 264.63 57.4C261.563 54.4667 260.03 50.8 260.03 46.4C260.03 41.8667 261.563 38.2 264.63 35.4C267.696 32.4667 271.563 31 276.23 31C280.896 31 284.763 32.4667 287.83 35.4C290.896 38.2 292.43 41.8667 292.43 46.4C292.43 50.8 290.896 54.4667 287.83 57.4C284.763 60.2 280.896 61.6 276.23 61.6ZM264.63 76H287.83V173H264.63V76ZM353.945 174.8C344.879 174.8 337.945 172.333 333.145 167.4C328.479 162.467 326.145 155.267 326.145 145.8V94.8H308.545L313.545 76H326.545V54.4L348.945 44V76H374.545L369.945 94.8H349.345V146.4C349.345 150 350.012 152.533 351.345 154C352.812 155.467 355.145 156.2 358.345 156.2C362.212 156.2 365.479 155.533 368.145 154.2L373.545 171C371.545 172.067 368.612 172.933 364.745 173.6C361.012 174.4 357.412 174.8 353.945 174.8ZM435.602 175C419.335 175 406.535 170.533 397.202 161.6C387.868 152.667 383.202 140.333 383.202 124.6C383.202 108.867 387.735 96.5333 396.802 87.6C406.002 78.5333 418.602 74 434.602 74C441.802 74 448.535 75.2 454.802 77.6C461.202 79.8667 466.402 82.9333 470.402 86.8L462.202 102.4C458.735 99.4667 454.735 97.2 450.202 95.6C445.668 93.8667 440.802 93 435.602 93C426.668 93 419.602 95.6667 414.402 101C409.335 106.2 406.802 114.067 406.802 124.6C406.802 134.867 409.402 142.667 414.602 148C419.802 153.333 427.068 156 436.402 156C446.402 156 454.602 152.8 461.002 146.4L473.402 159.2C469.135 164 463.602 167.867 456.802 170.8C450.135 173.6 443.068 175 435.602 175ZM562.466 175C558.199 167.8 556.066 159.133 556.066 149V114.8C556.066 100.267 549.932 93 537.666 93C530.599 93 524.866 95.8 520.466 101.4C516.066 106.867 513.866 113.733 513.866 122V173H490.666V26.2H513.866V87.6C517.466 83.3333 521.799 80 526.866 77.6C532.066 75.2 537.599 74 543.466 74C567.332 74 579.266 87.6 579.266 114.8V148.6C579.266 155.667 580.666 161.867 583.466 167.2L562.466 175ZM641.631 175C633.098 175 625.565 173 619.031 169C612.631 165 607.631 159.333 604.031 152C600.431 144.533 598.631 135.867 598.631 126C598.631 115.467 600.431 106.333 604.031 98.6C607.765 90.7333 613.031 84.6667 619.831 80.4C626.631 76.1333 634.631 74 643.831 74C655.298 74 664.698 78.4667 672.031 87.4V76H694.431V146.6C694.431 151.4 694.765 155.4 695.431 158.6C696.231 161.667 697.498 164.667 699.231 167.6L680.431 175C676.698 170.867 674.565 165.667 674.031 159.4H673.431C669.698 164.333 665.098 168.2 659.631 171C654.298 173.667 648.298 175 641.631 175ZM646.031 156.4C654.298 156.4 660.631 153.733 665.031 148.4C669.431 143.067 671.631 136 671.631 127.2V122C671.631 114 669.431 107.133 665.031 101.4C660.765 95.5333 654.631 92.6 646.631 92.6C638.765 92.6 632.698 95.5333 628.431 101.4C624.165 107.267 622.031 115.467 622.031 126C622.031 135.6 624.098 143.067 628.231 148.4C632.365 153.733 638.298 156.4 646.031 156.4ZM757.852 174.8C748.785 174.8 741.852 172.333 737.052 167.4C732.385 162.467 730.052 155.267 730.052 145.8V94.8H712.452L717.452 76H730.452V54.4L752.852 44V76H778.452L773.852 94.8H753.252V146.4C753.252 150 753.918 152.533 755.252 154C756.718 155.467 759.052 156.2 762.252 156.2C766.118 156.2 769.385 155.533 772.052 154.2L777.452 171C775.452 172.067 772.518 172.933 768.652 173.6C764.918 174.4 761.318 174.8 757.852 174.8Z" fill="black"/>
</g>
<defs>
<clipPath id="clip0_1_40">
<rect width="820" height="203" fill="white"/>
</clipPath>
</defs>
</svg>
